<svg width="256" height="256" viewBox="0 0 256 256" fill="none" xmlns="http://www.w3.org/2000/svg">
  <rect width="256" height="256" rx="56" fill="#0F2029"/>
  <path d="M64 132C64 101.072 89.0719 76 120 76H164V100H123C105.327 100 91 114.327 91 132C91 149.673 105.327 164 123 164H164V188H120C89.0719 188 64 162.928 64 132Z" fill="#D8F0EB"/>
  <path d="M119 76H144C176.585 76 203 102.415 203 135C203 167.585 176.585 194 144 194H119V170H141C160.33 170 176 154.33 176 135C176 115.67 160.33 100 141 100H119V76Z" fill="#BF6F3F"/>
</svg>